<mxfile host="app.diagrams.net" modified="2021-10-27T19:16:49.746Z" agent="5.0 (Macintosh; Intel Mac OS X 10_15_7) AppleWebKit/537.36 (KHTML, like Gecko) Chrome/95.0.4638.54 Safari/537.36" etag="Pf1Dmtgi9cqKpS_4yKoP" version="15.6.0" type="github">
  <diagram id="MoAtzV3okj-ewAqKb-n3" name="Page-1">
    <mxGraphModel dx="1426" dy="657" grid="1" gridSize="10" guides="1" tooltips="1" connect="1" arrows="1" fold="1" page="1" pageScale="1" pageWidth="1169" pageHeight="827" background="none" math="0" shadow="1">
      <root>
        <mxCell id="0" />
        <mxCell id="1" parent="0" />
        <mxCell id="WRq8cHTFqVjCApXs3IT_-32" value="Data Lake" style="swimlane;horizontal=0;fontSize=18;startSize=40;fillColor=#e1d5e7;strokeColor=#9673a6;strokeWidth=2;opacity=50;" parent="1" vertex="1">
          <mxGeometry x="79" y="320" width="480" height="160" as="geometry" />
        </mxCell>
        <mxCell id="WRq8cHTFqVjCApXs3IT_-33" value="Data Warehouse" style="swimlane;horizontal=0;fontSize=18;startSize=40;fillColor=#ffe6cc;strokeColor=#d79b00;rotation=-180;strokeWidth=2;opacity=50;" parent="1" vertex="1">
          <mxGeometry x="599" y="320" width="480" height="159" as="geometry" />
        </mxCell>
        <mxCell id="WRq8cHTFqVjCApXs3IT_-44" style="edgeStyle=orthogonalEdgeStyle;rounded=1;sketch=0;jumpStyle=arc;orthogonalLoop=1;jettySize=auto;html=1;entryX=0;entryY=0.5;entryDx=0;entryDy=0;shadow=0;fontSize=18;fontColor=#E6E6E6;strokeWidth=2;" parent="1" source="WRq8cHTFqVjCApXs3IT_-1" target="WRq8cHTFqVjCApXs3IT_-2" edge="1">
          <mxGeometry relative="1" as="geometry" />
        </mxCell>
        <mxCell id="WRq8cHTFqVjCApXs3IT_-1" value="Web&lt;br&gt;Source" style="ellipse;shape=cloud;whiteSpace=wrap;html=1;fillColor=#f5f5f5;strokeColor=#666666;fontColor=#333333;" parent="1" vertex="1">
          <mxGeometry x="38" y="80" width="120" height="80" as="geometry" />
        </mxCell>
        <mxCell id="WRq8cHTFqVjCApXs3IT_-4" style="edgeStyle=orthogonalEdgeStyle;rounded=1;orthogonalLoop=1;jettySize=auto;html=1;strokeWidth=2;" parent="1" source="WRq8cHTFqVjCApXs3IT_-2" target="WRq8cHTFqVjCApXs3IT_-3" edge="1">
          <mxGeometry relative="1" as="geometry">
            <mxPoint x="217.5" y="320" as="sourcePoint" />
          </mxGeometry>
        </mxCell>
        <mxCell id="WRq8cHTFqVjCApXs3IT_-2" value="Scraper" style="rounded=1;whiteSpace=wrap;html=1;fillColor=#d5e8d4;strokeColor=#82b366;strokeWidth=2;perimeterSpacing=0;" parent="1" vertex="1">
          <mxGeometry x="158" y="200" width="120" height="80" as="geometry" />
        </mxCell>
        <mxCell id="WRq8cHTFqVjCApXs3IT_-7" style="edgeStyle=orthogonalEdgeStyle;rounded=1;orthogonalLoop=1;jettySize=auto;html=1;entryX=0;entryY=0.5;entryDx=0;entryDy=0;strokeWidth=2;" parent="1" source="WRq8cHTFqVjCApXs3IT_-3" target="WRq8cHTFqVjCApXs3IT_-6" edge="1">
          <mxGeometry relative="1" as="geometry" />
        </mxCell>
        <mxCell id="WRq8cHTFqVjCApXs3IT_-3" value="Raw" style="shape=cylinder3;whiteSpace=wrap;html=1;boundedLbl=1;backgroundOutline=1;size=15;fillColor=#fff2cc;strokeColor=#d6b656;strokeWidth=2;perimeterSpacing=0;" parent="1" vertex="1">
          <mxGeometry x="157.5" y="358" width="120" height="80" as="geometry" />
        </mxCell>
        <mxCell id="WRq8cHTFqVjCApXs3IT_-9" style="edgeStyle=orthogonalEdgeStyle;rounded=1;orthogonalLoop=1;jettySize=auto;html=1;strokeWidth=2;" parent="1" source="WRq8cHTFqVjCApXs3IT_-6" target="WRq8cHTFqVjCApXs3IT_-8" edge="1">
          <mxGeometry relative="1" as="geometry">
            <mxPoint x="459.00000000000045" y="320" as="sourcePoint" />
          </mxGeometry>
        </mxCell>
        <mxCell id="WRq8cHTFqVjCApXs3IT_-6" value="Data Pipelines" style="rounded=1;whiteSpace=wrap;html=1;fillColor=#d5e8d4;strokeColor=#82b366;strokeWidth=2;perimeterSpacing=0;" parent="1" vertex="1">
          <mxGeometry x="399.5" y="200" width="120" height="80" as="geometry" />
        </mxCell>
        <mxCell id="WRq8cHTFqVjCApXs3IT_-11" style="edgeStyle=orthogonalEdgeStyle;rounded=1;orthogonalLoop=1;jettySize=auto;html=1;entryX=0;entryY=0.5;entryDx=0;entryDy=0;strokeWidth=2;" parent="1" source="WRq8cHTFqVjCApXs3IT_-8" target="WRq8cHTFqVjCApXs3IT_-10" edge="1">
          <mxGeometry relative="1" as="geometry" />
        </mxCell>
        <mxCell id="WRq8cHTFqVjCApXs3IT_-25" style="edgeStyle=orthogonalEdgeStyle;rounded=1;orthogonalLoop=1;jettySize=auto;html=1;entryX=0.5;entryY=0;entryDx=0;entryDy=0;fontSize=48;strokeWidth=2;" parent="1" source="WRq8cHTFqVjCApXs3IT_-8" target="WRq8cHTFqVjCApXs3IT_-23" edge="1">
          <mxGeometry relative="1" as="geometry" />
        </mxCell>
        <mxCell id="WRq8cHTFqVjCApXs3IT_-8" value="Curated" style="shape=cylinder3;whiteSpace=wrap;html=1;boundedLbl=1;backgroundOutline=1;size=15;fillColor=#fff2cc;strokeColor=#d6b656;strokeWidth=2;perimeterSpacing=0;" parent="1" vertex="1">
          <mxGeometry x="399" y="358" width="120" height="80" as="geometry" />
        </mxCell>
        <mxCell id="WRq8cHTFqVjCApXs3IT_-13" style="edgeStyle=orthogonalEdgeStyle;rounded=1;orthogonalLoop=1;jettySize=auto;html=1;entryX=0.5;entryY=0;entryDx=0;entryDy=0;entryPerimeter=0;strokeWidth=2;jumpStyle=arc;shadow=0;sketch=0;" parent="1" source="WRq8cHTFqVjCApXs3IT_-10" target="WRq8cHTFqVjCApXs3IT_-12" edge="1">
          <mxGeometry relative="1" as="geometry">
            <mxPoint x="699.5714285714284" y="320" as="sourcePoint" />
          </mxGeometry>
        </mxCell>
        <mxCell id="WRq8cHTFqVjCApXs3IT_-10" value="ETL Jobs" style="rounded=1;whiteSpace=wrap;html=1;fillColor=#d5e8d4;strokeColor=#82b366;strokeWidth=2;perimeterSpacing=0;" parent="1" vertex="1">
          <mxGeometry x="639.5" y="200" width="121" height="80" as="geometry" />
        </mxCell>
        <mxCell id="WRq8cHTFqVjCApXs3IT_-17" style="edgeStyle=orthogonalEdgeStyle;rounded=1;orthogonalLoop=1;jettySize=auto;html=1;strokeWidth=2;" parent="1" source="WRq8cHTFqVjCApXs3IT_-12" target="WRq8cHTFqVjCApXs3IT_-14" edge="1">
          <mxGeometry relative="1" as="geometry" />
        </mxCell>
        <mxCell id="WRq8cHTFqVjCApXs3IT_-43" style="edgeStyle=orthogonalEdgeStyle;rounded=1;sketch=0;jumpStyle=arc;orthogonalLoop=1;jettySize=auto;html=1;entryX=0;entryY=0.5;entryDx=0;entryDy=0;shadow=0;fontSize=18;fontColor=#E6E6E6;strokeWidth=2;" parent="1" source="WRq8cHTFqVjCApXs3IT_-12" target="WRq8cHTFqVjCApXs3IT_-37" edge="1">
          <mxGeometry relative="1" as="geometry" />
        </mxCell>
        <mxCell id="WRq8cHTFqVjCApXs3IT_-12" value="Data Vault" style="shape=cylinder3;whiteSpace=wrap;html=1;boundedLbl=1;backgroundOutline=1;size=15;fillColor=#fff2cc;strokeColor=#d6b656;strokeWidth=2;perimeterSpacing=0;" parent="1" vertex="1">
          <mxGeometry x="639" y="358" width="121" height="80" as="geometry" />
        </mxCell>
        <mxCell id="WRq8cHTFqVjCApXs3IT_-20" style="edgeStyle=orthogonalEdgeStyle;rounded=1;orthogonalLoop=1;jettySize=auto;html=1;strokeWidth=2;" parent="1" source="WRq8cHTFqVjCApXs3IT_-14" target="WRq8cHTFqVjCApXs3IT_-19" edge="1">
          <mxGeometry relative="1" as="geometry">
            <mxPoint x="809" y="768" as="targetPoint" />
          </mxGeometry>
        </mxCell>
        <mxCell id="WRq8cHTFqVjCApXs3IT_-14" value="SQL Client" style="rounded=1;whiteSpace=wrap;html=1;fillColor=#dae8fc;strokeColor=#6c8ebf;strokeWidth=2;" parent="1" vertex="1">
          <mxGeometry x="639" y="518" width="120" height="80" as="geometry" />
        </mxCell>
        <mxCell id="WRq8cHTFqVjCApXs3IT_-19" value="BI Developer" style="shape=umlActor;verticalLabelPosition=bottom;verticalAlign=top;html=1;outlineConnect=0;aspect=fixed;strokeWidth=2;" parent="1" vertex="1">
          <mxGeometry x="679.25" y="680" width="39.5" height="79" as="geometry" />
        </mxCell>
        <mxCell id="WRq8cHTFqVjCApXs3IT_-22" value="Architecture Overview" style="text;html=1;strokeColor=none;fillColor=none;align=center;verticalAlign=middle;whiteSpace=wrap;rounded=0;fontSize=48;" parent="1" vertex="1">
          <mxGeometry x="324" y="40" width="520" height="40" as="geometry" />
        </mxCell>
        <mxCell id="WRq8cHTFqVjCApXs3IT_-26" style="edgeStyle=orthogonalEdgeStyle;rounded=1;orthogonalLoop=1;jettySize=auto;html=1;entryX=0.5;entryY=0;entryDx=0;entryDy=0;entryPerimeter=0;fontSize=48;strokeWidth=2;" parent="1" source="WRq8cHTFqVjCApXs3IT_-23" target="WRq8cHTFqVjCApXs3IT_-24" edge="1">
          <mxGeometry relative="1" as="geometry" />
        </mxCell>
        <mxCell id="WRq8cHTFqVjCApXs3IT_-23" value="Jupyter Notebook" style="rounded=1;whiteSpace=wrap;html=1;fillColor=#dae8fc;strokeColor=#6c8ebf;strokeWidth=2;" parent="1" vertex="1">
          <mxGeometry x="399" y="518" width="120" height="80" as="geometry" />
        </mxCell>
        <mxCell id="WRq8cHTFqVjCApXs3IT_-24" value="Data Scientist" style="shape=umlActor;verticalLabelPosition=bottom;verticalAlign=top;html=1;outlineConnect=0;aspect=fixed;strokeWidth=2;" parent="1" vertex="1">
          <mxGeometry x="439.25" y="680" width="39.5" height="79" as="geometry" />
        </mxCell>
        <mxCell id="WRq8cHTFqVjCApXs3IT_-30" style="edgeStyle=orthogonalEdgeStyle;rounded=1;orthogonalLoop=1;jettySize=auto;html=1;entryX=0.5;entryY=1;entryDx=0;entryDy=0;entryPerimeter=0;fontSize=48;strokeWidth=2;" parent="1" source="WRq8cHTFqVjCApXs3IT_-27" target="WRq8cHTFqVjCApXs3IT_-3" edge="1">
          <mxGeometry relative="1" as="geometry" />
        </mxCell>
        <mxCell id="WRq8cHTFqVjCApXs3IT_-27" value="Scripts" style="rounded=1;whiteSpace=wrap;html=1;fillColor=#dae8fc;strokeColor=#6c8ebf;strokeWidth=2;" parent="1" vertex="1">
          <mxGeometry x="157.5" y="518" width="120" height="80" as="geometry" />
        </mxCell>
        <mxCell id="WRq8cHTFqVjCApXs3IT_-29" style="edgeStyle=orthogonalEdgeStyle;rounded=1;orthogonalLoop=1;jettySize=auto;html=1;fontSize=48;strokeWidth=2;" parent="1" source="WRq8cHTFqVjCApXs3IT_-28" target="WRq8cHTFqVjCApXs3IT_-27" edge="1">
          <mxGeometry relative="1" as="geometry" />
        </mxCell>
        <mxCell id="WRq8cHTFqVjCApXs3IT_-28" value="Data Engineer" style="shape=umlActor;verticalLabelPosition=bottom;verticalAlign=top;html=1;outlineConnect=0;aspect=fixed;strokeWidth=2;" parent="1" vertex="1">
          <mxGeometry x="198.25" y="680" width="39.5" height="79" as="geometry" />
        </mxCell>
        <mxCell id="WRq8cHTFqVjCApXs3IT_-37" value="DB Views" style="rounded=1;whiteSpace=wrap;html=1;fillColor=#d5e8d4;strokeColor=#82b366;strokeWidth=2;perimeterSpacing=0;" parent="1" vertex="1">
          <mxGeometry x="879.5" y="200" width="121" height="80" as="geometry" />
        </mxCell>
        <mxCell id="WRq8cHTFqVjCApXs3IT_-39" value="Mart" style="shape=cylinder3;whiteSpace=wrap;html=1;boundedLbl=1;backgroundOutline=1;size=15;fillColor=#fff2cc;strokeColor=#d6b656;strokeWidth=2;perimeterSpacing=0;" parent="1" vertex="1">
          <mxGeometry x="879" y="358" width="121" height="80" as="geometry" />
        </mxCell>
        <mxCell id="WRq8cHTFqVjCApXs3IT_-36" style="edgeStyle=orthogonalEdgeStyle;rounded=1;orthogonalLoop=1;jettySize=auto;html=1;entryX=0.5;entryY=0;entryDx=0;entryDy=0;entryPerimeter=0;strokeWidth=2;jumpStyle=arc;shadow=0;sketch=0;" parent="1" source="WRq8cHTFqVjCApXs3IT_-37" target="WRq8cHTFqVjCApXs3IT_-39" edge="1">
          <mxGeometry relative="1" as="geometry">
            <mxPoint x="939.5714285714284" y="320" as="sourcePoint" />
          </mxGeometry>
        </mxCell>
        <mxCell id="WRq8cHTFqVjCApXs3IT_-41" value="BI Tool" style="rounded=1;whiteSpace=wrap;html=1;fillColor=#dae8fc;strokeColor=#6c8ebf;strokeWidth=2;" parent="1" vertex="1">
          <mxGeometry x="879" y="518" width="120" height="80" as="geometry" />
        </mxCell>
        <mxCell id="WRq8cHTFqVjCApXs3IT_-38" style="edgeStyle=orthogonalEdgeStyle;rounded=1;orthogonalLoop=1;jettySize=auto;html=1;strokeWidth=2;" parent="1" source="WRq8cHTFqVjCApXs3IT_-39" target="WRq8cHTFqVjCApXs3IT_-41" edge="1">
          <mxGeometry relative="1" as="geometry" />
        </mxCell>
        <mxCell id="WRq8cHTFqVjCApXs3IT_-42" value="BI User" style="shape=umlActor;verticalLabelPosition=bottom;verticalAlign=top;html=1;outlineConnect=0;aspect=fixed;strokeWidth=2;" parent="1" vertex="1">
          <mxGeometry x="919.25" y="680" width="39.5" height="79" as="geometry" />
        </mxCell>
        <mxCell id="WRq8cHTFqVjCApXs3IT_-40" style="edgeStyle=orthogonalEdgeStyle;rounded=1;orthogonalLoop=1;jettySize=auto;html=1;strokeWidth=2;" parent="1" source="WRq8cHTFqVjCApXs3IT_-41" target="WRq8cHTFqVjCApXs3IT_-42" edge="1">
          <mxGeometry relative="1" as="geometry">
            <mxPoint x="1049" y="768" as="targetPoint" />
          </mxGeometry>
        </mxCell>
      </root>
    </mxGraphModel>
  </diagram>
</mxfile>
